<svg xmlns="http://www.w3.org/2000/svg" version="1.1" xmlns:xlink="http://www.w3.org/1999/xlink" xmlns:svgjs="http://svgjs.dev/svgjs" width="100%" height="100%" viewBox="0 0 1000 600"><rect width="1000" height="600" x="0" y="0" fill="#141a46"/><g><rect width="333.3333333333333" height="333.3333333333333" rx="13.333333333333334" ry="13.333333333333334" y="181.41505695483335" fill="#ec8b5e" transform="matrix(0.7852112415053665,0,0,0.7852112415053665,-9.908712019604032,26.68231893035501)" x="217.94435119628903"/><path d="M171.81199643365656 423.0817106652973L171.81199643365656 273.08172161658047L597.4100514857572 273.08172161658047L597.4100514857572 423.0817106652973L171.81199643365656 423.0817106652973Z " fill="#141a46" transform="matrix(0.7852112415053665,0,0,0.7852112415053665,-9.908712019604032,26.68231893035501)"/><path d="M671.197680141007 319.78132764032426L671.197680141007 319.78132764032426Q673.5008922898147 319.78132764032426 676.4394733072589 320.0725383717826Q679.4045280275631 320.3372754003812 682.2636879364278 320.81380205185866Q685.1228478452925 321.2903287033361 687.5054811026797 321.7668553548136Q689.8881143600669 322.24338200629103 691.0264835830409 322.6404875491889L691.0264835830409 322.6404875491889L687.9820077541572 338.07465631648626Q685.8905852282284 337.3069189335503 681.0194239020144 336.2744445220159Q676.1747362786604 335.2154964076215 668.5503098550213 335.2154964076215L668.5503098550213 335.2154964076215Q663.573253717368 335.2154964076215 658.7285660940139 336.2744445220159Q653.8574047678 337.3069189335503 652.348403704788 337.7040244764482L652.348403704788 337.7040244764482L652.348403704788 420.9902936735621L634.611022788683 420.9902936735621L634.611022788683 326.05559521811057Q640.9117640693293 323.7788567721628 650.2305074759994 321.7668553548136Q659.5757245855293 319.78132764032426 671.197680141007 319.78132764032426ZM708.181443036229 420.9902936735621L708.181443036229 324.7319100751177Q714.2968683968562 323.19643530924594 724.3039280778827 321.502118326215Q734.310987758909 319.78132764032426 747.4419443773987 319.78132764032426L747.4419443773987 319.78132764032426Q756.9724774069477 319.78132764032426 763.4585346076129 322.3492768177304Q769.9445918082782 324.9172259951367 774.3392264830147 329.8678084299302L774.3392264830147 329.8678084299302Q775.6629116260076 328.9147551269753 778.5220715348722 327.22043814394436Q781.381231443737 325.49964745805363 785.5640764955946 323.8847515836023Q789.773395250312 322.24338200629103 794.9092936051245 321.02559167473754Q800.0716656627968 319.78132764032426 805.9753014005453 319.78132764032426L805.9753014005453 319.78132764032426Q817.411941036004 319.78132764032426 824.6392619167452 323.11701420066635Q831.8930565003463 326.45270076100843 835.9964804436245 332.54165241877587Q840.0999043869025 338.6570777794031 841.5294843413349 347.0227678831183Q842.9590642957671 355.41493168969333 842.9590642957671 365.3425702621402L842.9590642957671 365.3425702621402L842.9590642957671 420.9902936735621L825.2216833796622 420.9902936735621L825.2216833796622 369.15478347395975Q825.2216833796622 360.3655141244869 824.3745248881467 354.09124654670046Q823.5008926937713 347.79050526605425 821.118259436384 343.60766021419664Q818.7356261789969 339.3983414594791 814.6322022357189 337.4128137449898Q810.5552519953008 335.4008123276406 804.0691947946355 335.4008123276406L804.0691947946355 335.4008123276406Q795.0946095251435 335.4008123276406 789.2968685988345 337.7834455850278Q783.4726539696658 340.16607884241506 781.381231443737 342.0721854483248L781.381231443737 342.0721854483248Q782.9167062096087 347.0227678831183 783.6579698896848 352.95287732372657Q784.4257072726207 358.8565130614749 784.4257072726207 365.3425702621402L784.4257072726207 365.3425702621402L784.4257072726207 420.9902936735621L766.7148000593754 420.9902936735621L766.7148000593754 369.15478347395975Q766.7148000593754 360.3655141244869 765.7617467564206 354.09124654670046Q764.8086934534657 347.79050526605425 762.4260601960784 343.60766021419664Q760.0434269386913 339.3983414594791 755.9400029954132 337.4128137449898Q751.8365790521352 335.4008123276406 745.5358377714889 335.4008123276406L745.5358377714889 335.4008123276406Q742.888467485503 335.4008123276406 739.8175179537595 335.5861282476596Q736.7730421248758 335.79791787053847 734.0197770274506 336.06265489913704Q731.2400382271654 336.3538656305954 728.9632997812176 336.75097117349327Q726.6865613352699 337.12160301353134 725.918823952334 337.3069189335503L725.918823952334 337.3069189335503L725.918823952334 420.9902936735621L708.181443036229 420.9902936735621ZM905.8605822907903 408.2299688951105L905.8605822907903 408.2299688951105Q912.1348498685767 408.2299688951105 917.0060111947905 407.93875816365204Q921.8506988181446 407.6475474321937 925.1069642699072 406.87981004925774L925.1069642699072 406.87981004925774L925.1069642699072 377.335157657656Q923.2008576639973 376.3821043547011 918.9121178007003 375.72026178320465Q914.6233779374033 375.0584192117082 908.507952576776 375.0584192117082L908.507952576776 375.0584192117082Q904.5104234449375 375.0584192117082 900.0363676616214 375.61436697176515Q895.5623118783054 376.1967884346821 891.8295197750654 377.99700022915243Q888.1232013746852 379.82368572648267 885.6346733058585 382.97405636680577Q883.1726189398918 386.0979533042691 883.1726189398918 391.2603253619414L883.1726189398918 391.2603253619414Q883.1726189398918 400.7908583914903 889.2615705976591 404.49717679187046Q895.3769959582864 408.2299688951105 905.8605822907903 408.2299688951105ZM904.3251075249185 319.3842220974263L904.3251075249185 319.3842220974263Q914.9940097774413 319.3842220974263 922.3272254696221 322.16396089771143Q929.6869148646626 324.9172259951367 934.1609706479787 329.9737032413696Q938.6350264312947 335.03018048760254 940.5411330372044 341.9927643397453Q942.4472396431144 348.92887448902815 942.4472396431144 357.32103829560316L942.4472396431144 357.32103829560316L942.4472396431144 419.2695029876714Q940.1705011971665 419.66660853056925 936.0670772538884 420.3284511020657Q931.9636533106104 420.9902936735621 926.8277549557979 421.5727151364791Q921.6653828981256 422.1286628965361 915.6558523489377 422.60518954801347Q909.6727955026098 423.0817161994909 903.7426860620017 423.0817161994909L903.7426860620017 423.0817161994909Q895.3769959582864 423.0817161994909 888.3085172947043 421.3609255136002Q881.2665123339821 419.66660853056925 876.1041402763096 415.9338164273293Q870.9682419214971 412.22749802694915 868.1090820126325 406.1120726663218Q865.2499221037677 400.0231210085545 865.2499221037677 391.4456412819604L865.2499221037677 391.4456412819604Q865.2499221037677 383.23879339540434 868.5856086641099 377.335157657656Q871.921295224452 371.43152191990754 877.6396150421814 367.804624628107Q883.3579348599108 364.1777273363064 890.9823612835498 362.4834103532755Q898.6067877071891 360.76261966738474 906.9989515137642 360.76261966738474L906.9989515137642 360.76261966738474Q909.6727955026098 360.76261966738474 912.5319554114745 361.0538303988432Q915.3911153203392 361.3185674274418 917.9590644977454 361.79509407891925Q920.5270136751517 362.2716207303966 922.4331202810615 362.66872627329457Q924.3392268869713 363.0393581133325 925.1069642699072 363.2246740333515L925.1069642699072 363.2246740333515L925.1069642699072 358.2740915985581Q925.1069642699072 353.9059306266815 924.1539109669523 349.6171907633844Q923.2008576639973 345.3284509000874 920.7123295951708 341.9927643397453Q918.2502752292039 338.6570777794031 913.9615353659069 336.6450763620539Q909.6727955026098 334.6330749447047 902.7896327590468 334.6330749447047L902.7896327590468 334.6330749447047Q894.0268371124337 334.6330749447047 887.4613588031888 335.87733897911795Q880.8694067910841 337.12160301353134 877.6396150421814 338.4452881565242L877.6396150421814 338.4452881565242L875.5481925162526 323.7788567721628Q878.9633001851744 322.24338200629103 886.9848321517113 320.81380205185866Q894.9798904153886 319.3842220974263 904.3251075249185 319.3842220974263ZM1008.3932334670211 319.78132764032426L1008.3932334670211 319.78132764032426Q1010.6964456158288 319.78132764032426 1013.6350266332731 320.0725383717826Q1016.6000813535773 320.3372754003812 1019.4592412624418 320.81380205185866Q1022.3184011713065 321.2903287033361 1024.7010344286937 321.7668553548136Q1027.0836676860813 322.24338200629103 1028.222036909055 322.6404875491889L1028.222036909055 322.6404875491889L1025.1775610801715 338.07465631648626Q1023.0861385542424 337.3069189335503 1018.2149772280285 336.2744445220159Q1013.3438159018147 335.2154964076215 1005.7193894781753 335.2154964076215L1005.7193894781753 335.2154964076215Q1000.7688070433819 335.2154964076215 995.924119420028 336.2744445220159Q991.0529580938139 337.3069189335503 989.5174833279423 337.7040244764482L989.5174833279423 337.7040244764482L989.5174833279423 420.9902936735621L971.806576114697 420.9902936735621L971.806576114697 326.05559521811057Q978.0808436924835 323.7788567721628 987.4260608020134 321.7668553548136Q996.7712779115434 319.78132764032426 1008.3932334670211 319.78132764032426ZM1081.2223900344911 366.4809394851141L1081.2223900344911 366.4809394851141Q1086.9407098522206 370.8491004569907 1093.3208722414465 377.335157657656Q1099.701034630672 383.8212148583212 1105.8958810998788 391.339746470521Q1112.090727569086 398.8847517855806 1117.6237314667965 406.58859931779926Q1123.1567353645069 414.31892055287784 1126.968948576326 420.9902936735621L1126.968948576326 420.9902936735621L1106.1870918313375 420.9902936735621Q1102.1895626994988 414.31892055287784 1096.947769533247 407.3563367007352Q1091.705976366995 400.39375284859244 1085.9876565492655 394.01359045936664Q1080.2693367315364 387.63342807014084 1074.3392272909282 382.28574009244943Q1068.4355915531796 376.9645258176179 1063.114377278348 373.33762852581737L1063.114377278348 373.33762852581737L1063.114377278348 420.9902936735621L1045.376996362243 420.9902936735621L1045.376996362243 276.12619162441797L1063.114377278348 273.08171579553425L1063.114377278348 363.4364636562304Q1067.6678541702436 358.8565130614749 1073.200858067954 353.3235091637645Q1078.7338619656643 347.79050526605425 1084.0815499433556 342.0721854483248Q1089.4027642181873 336.3538656305954 1094.168030732962 331.1120724643435Q1098.9332972477364 325.8702792980916 1102.3748786195179 321.87275016625296L1102.3748786195179 321.87275016625296L1123.1567353645069 321.87275016625296Q1118.7621006897703 326.6380166810275 1113.6262023349577 332.3563364987569Q1108.463830277285 338.07465631648626 1102.9308263795751 343.898870945655Q1097.4242961847244 349.69661187196397 1091.7853974755744 355.52082650113283Q1086.1729724692846 361.3185674274418 1081.2223900344911 366.4809394851141Z " fill="#ec8b5e" transform="matrix(0.7852112415053665,0,0,0.7852112415053665,-9.908712019604032,26.68231893035501)"/></g></svg>